<?xml version="1.0" encoding="utf-8"?>
<!-- Generator: Adobe Illustrator 26.0.3, SVG Export Plug-In . SVG Version: 6.00 Build 0)  -->
<svg version="1.1" id="Capa_1" xmlns="http://www.w3.org/2000/svg" xmlns:xlink="http://www.w3.org/1999/xlink" x="0px" y="0px"
	 viewBox="0 0 872 420" style="enable-background:new 0 0 872 420;" xml:space="preserve">
<style type="text/css">
	.st0{fill:#FFFFFF;}
</style>
<g>
	<g>
		<polygon class="st0" points="143.2,270.2 115,178.3 92.7,178.3 64.3,270.2 36.3,178.2 10.6,178.2 51.6,312.3 72.4,312.3 
			103.8,215.2 135.2,312.3 156,312.3 196.9,178.3 171.4,178.3 		"/>
		<polygon class="st0" points="378.6,201.5 447.8,201.5 371.8,308.2 371.8,312.3 485.2,312.3 485.2,289.1 413.1,289.1 489,182.5 
			489,178.3 378.6,178.3 		"/>
		<path class="st0" d="M320.1,192.4c-11.5-12-27.2-18.3-45.6-18.3c-39,0-68.4,30.6-68.4,71.3c0,40.6,29.4,71.3,68.4,71.3
			c18.4,0,34.1-6.3,45.6-18.2v15.4h26.2v-137h-26.2V192.4z M277.1,292c-25.8,0-44.5-19.6-44.5-46.6c0-26.9,18.7-46.4,44.5-46.4
			c25.7,0,44.3,19.5,44.3,46.4C321.5,272.4,302.9,292,277.1,292z"/>
		<path class="st0" d="M611,254.1c0,24.1-13.2,37.8-36.3,37.8c-23.2,0-36.4-13.8-36.4-37.8v-77.2h-26.2v79.3
			c0,44.6,33.8,60.4,62.7,60.4s62.5-15.8,62.5-60.4v-79.3h-26.2L611,254.1L611,254.1z"/>
		<path class="st0" d="M789,223.4c-0.7-5.5-2.2-11-4.2-16.7s-5.1-11-9-15.8s-9-8.7-15.3-11.7s-14.1-4.5-23.3-4.5
			c-12.1,0-22.4,2.6-30.9,7.8c-5.2,3.2-9.7,7.1-13.4,11.9v-52h-23.2v169.9H696v-69.7c0-7.9,0.9-14.7,2.7-20.2s4.2-10,7.3-13.4
			s6.7-5.9,10.9-7.4c4.1-1.5,8.5-2.3,13.2-2.3c7.1,0,12.9,1.4,17.3,4.3c4.4,2.9,7.9,6.7,10.3,11.4c2.4,4.7,4.1,9.8,5,15.3
			s1.3,10.9,1.3,16.1v65.9h26.3v-74.4C790.1,233.7,789.8,228.9,789,223.4z"/>
		<circle cx="840.2" cy="293.8" r="21.1"/>
	</g>
	<g>
		<g>
			<path class="st0" d="M208.9,92.4l-19.1-66h7l15.5,54.5l15.4-54.5h7.1l15.5,54.5l15.4-54.5h7.1l-19,66H247l-15.6-54.1l-15.5,54.1
				H208.9z"/>
			<path class="st0" d="M296,93.7c-4.8,0-9-1.1-12.5-3.2s-6.3-5.2-8.2-9c-2-3.9-2.9-8.4-2.9-13.7c0-5.4,1-10.1,2.9-14s4.6-7,8.1-9.1
				s7.6-3.2,12.4-3.2c4.9,0,9.1,1.1,12.5,3.4c3.5,2.2,6.1,5.5,7.8,9.7c1.8,4.2,2.6,9.2,2.4,15h-6.9v-2.4c-0.1-6.4-1.5-11.3-4.1-14.5
				c-2.6-3.3-6.5-4.9-11.6-4.9c-5.3,0-9.4,1.7-12.2,5.2s-4.2,8.4-4.2,14.8c0,6.2,1.4,11.1,4.2,14.5s6.8,5.2,12,5.2
				c3.5,0,6.6-0.8,9.3-2.5c2.6-1.6,4.7-4,6.3-7.1l6.3,2.4c-2,4.3-4.8,7.6-8.6,10C305.2,92.5,300.8,93.7,296,93.7z M277.1,69.5v-5.6
				H315v5.6H277.1z"/>
			<path class="st0" d="M329.7,92.4V25h6.7v67.4H329.7z"/>
			<path class="st0" d="M370.7,93.7c-5,0-9.2-1.1-12.7-3.3c-3.5-2.2-6.1-5.3-7.9-9.2c-1.8-3.9-2.7-8.4-2.8-13.5
				c0.1-5.2,1-9.8,2.8-13.7s4.5-7,7.9-9.2c3.5-2.2,7.6-3.3,12.6-3.3s9.4,1.2,13.1,3.7c3.7,2.4,6.3,5.8,7.6,10l-6.6,2.1
				c-1.2-3-3-5.3-5.5-6.9c-2.5-1.6-5.4-2.5-8.6-2.5c-3.6,0-6.6,0.8-9,2.5c-2.4,1.7-4.2,4-5.3,6.9c-1.2,3-1.8,6.4-1.8,10.2
				c0.1,5.9,1.4,10.7,4.1,14.3c2.7,3.6,6.7,5.4,12,5.4c3.4,0,6.2-0.8,8.6-2.3c2.4-1.5,4.2-3.8,5.4-6.8l6.8,2
				c-1.8,4.4-4.5,7.8-8.1,10.1C379.8,92.6,375.5,93.7,370.7,93.7z"/>
			<path class="st0" d="M420.2,93.7c-4.9,0-9.1-1.1-12.6-3.3s-6.2-5.3-8-9.3c-1.9-3.9-2.8-8.5-2.8-13.6c0-5.2,0.9-9.8,2.8-13.7
				c1.9-3.9,4.6-7,8.1-9.1c3.5-2.2,7.7-3.3,12.5-3.3c5,0,9.2,1.1,12.7,3.3s6.2,5.3,8,9.2s2.8,8.4,2.8,13.5c0,5.2-0.9,9.8-2.8,13.7
				c-1.9,3.9-4.6,7-8.1,9.2C429.2,92.6,425,93.7,420.2,93.7z M420.2,87.3c5.5,0,9.6-1.8,12.3-5.5s4-8.4,4-14.2
				c0-6-1.4-10.8-4.1-14.3S425.5,48,420,48c-3.7,0-6.7,0.8-9.1,2.5c-2.4,1.7-4.2,4-5.4,6.9c-1.2,3-1.8,6.4-1.8,10.2
				c0,6,1.4,10.7,4.1,14.3C410.8,85.5,414.8,87.3,420.2,87.3z"/>
			<path class="st0" d="M453.7,92.4V42.8h6.1V55h0.7v37.3L453.7,92.4L453.7,92.4z M483.2,92.4v-32c0-3.9-1-7.1-3.1-9.3
				c-2.1-2.3-4.9-3.4-8.3-3.4c-3.4,0-6.2,1.2-8.3,3.5s-3.2,5.4-3.2,9.3l-4-2.2c0-3.2,0.7-6,2.2-8.6c1.5-2.5,3.5-4.5,6.1-6
				c2.6-1.5,5.5-2.2,8.8-2.2c3.1,0,6,0.7,8.4,2c2.5,1.3,4.4,3.3,5.8,5.9c1.4,2.6,2.1,5.7,2.1,9.4v33.6
				C489.8,92.4,483.2,92.4,483.2,92.4z M512.8,92.4V59.9c0-3.8-1.1-6.8-3.2-9c-2.1-2.2-4.8-3.3-8.1-3.3c-1.9,0-3.7,0.4-5.5,1.3
				c-1.8,0.9-3.2,2.2-4.4,4.1c-1.1,1.9-1.7,4.4-1.7,7.4l-4-1.1c-0.1-3.5,0.6-6.6,2.1-9.3s3.5-4.7,6.1-6.2c2.6-1.5,5.6-2.2,8.9-2.2
				c5,0,9,1.5,12,4.6s4.5,7.2,4.5,12.4v33.8C519.4,92.4,512.8,92.4,512.8,92.4z"/>
			<path class="st0" d="M552.2,93.7c-4.8,0-9-1.1-12.5-3.2s-6.3-5.2-8.2-9c-2-3.9-2.9-8.4-2.9-13.7c0-5.4,1-10.1,2.9-14
				c1.9-3.9,4.6-7,8.1-9.1s7.6-3.2,12.4-3.2c4.9,0,9.1,1.1,12.5,3.4c3.5,2.2,6.1,5.5,7.8,9.7c1.8,4.2,2.6,9.2,2.4,15h-6.9v-2.4
				c-0.1-6.4-1.5-11.3-4.1-14.5c-2.6-3.3-6.5-4.9-11.6-4.9c-5.3,0-9.4,1.7-12.2,5.2s-4.2,8.4-4.2,14.8c0,6.2,1.4,11.1,4.2,14.5
				s6.8,5.2,12,5.2c3.5,0,6.6-0.8,9.3-2.5c2.6-1.6,4.7-4,6.3-7.1l6.3,2.4c-2,4.3-4.8,7.6-8.6,10C561.2,92.5,557,93.7,552.2,93.7z
				 M533.2,69.5v-5.6H571v5.6H533.2z"/>
			<path class="st0" d="M597.5,48.6v-5.8H630v5.8H597.5z M630,92.4c-2.8,0.6-5.5,0.8-8.2,0.7c-2.7-0.1-5.1-0.7-7.2-1.7
				c-2.1-1-3.7-2.7-4.8-4.9c-0.9-1.8-1.4-3.7-1.4-5.6s-0.1-4-0.1-6.4V29.1h6.7v45.1c0,2.1,0,3.8,0.1,5.2c0,1.4,0.4,2.6,0.9,3.7
				c1.1,2,2.9,3.3,5.2,3.7c2.4,0.4,5.4,0.3,8.9-0.3v5.9H630z"/>
			<path class="st0" d="M658.7,93.7c-4.9,0-9.1-1.1-12.6-3.3c-3.5-2.2-6.2-5.3-8-9.3c-1.9-3.9-2.8-8.5-2.8-13.6
				c0-5.2,0.9-9.8,2.8-13.7c1.9-3.9,4.6-7,8.1-9.1c3.5-2.2,7.7-3.3,12.5-3.3c5,0,9.2,1.1,12.7,3.3s6.2,5.3,8,9.2s2.8,8.4,2.8,13.5
				c0,5.2-0.9,9.8-2.8,13.7c-1.9,3.9-4.6,7-8.1,9.2C667.8,92.6,663.5,93.7,658.7,93.7z M658.7,87.3c5.5,0,9.6-1.8,12.3-5.5
				s4-8.4,4-14.2c0-6-1.4-10.8-4.1-14.3s-6.8-5.3-12.3-5.3c-3.7,0-6.7,0.8-9.1,2.5c-2.4,1.7-4.2,4-5.4,6.9c-1.2,3-1.8,6.4-1.8,10.2
				c0,6,1.4,10.7,4.1,14.3C649.2,85.5,653.4,87.3,658.7,87.3z"/>
		</g>
	</g>
	<g>
		<g>
			<path class="st0" d="M22.8,399v-31.7H10.6v-5h29.7v5H28.2V399H22.8z"/>
			<path class="st0" d="M44.6,399v-36.8h4.8V382H50v16.8h-5.4V399z M63.9,399v-13.5c0-1.1-0.1-2.2-0.2-3.3s-0.5-2.2-1-3.2
				c-0.5-1-1.2-1.7-2.1-2.3c-0.9-0.6-2.1-0.9-3.6-0.9c-1,0-1.8,0.1-2.7,0.5c-0.9,0.4-1.6,0.9-2.2,1.5c-0.6,0.7-1.1,1.6-1.5,2.7
				c-0.4,1.1-0.5,2.6-0.5,4.2l-3.3-1.2c0-2.5,0.5-4.7,1.4-6.6c0.9-2,2.3-3.4,4.1-4.4c1.7-1.1,3.8-1.6,6.4-1.6c1.8,0,3.4,0.2,4.8,0.9
				c1.4,0.6,2.3,1.5,3.2,2.5c0.9,1,1.5,2.1,1.8,3.2c0.4,1.2,0.7,2.3,0.9,3.4s0.2,2.1,0.2,3v15.2h-5.7V399z"/>
			<path class="st0" d="M88.2,399.8c-2.7,0-5.2-0.6-7.3-1.8c-2.1-1.2-3.7-2.8-4.8-5c-1.1-2.1-1.7-4.7-1.7-7.5c0-3,0.6-5.7,1.7-7.9
				c1.1-2.2,2.7-3.9,4.7-5.2c2-1.2,4.4-1.8,7-1.8c2.8,0,5.2,0.6,7.1,2c2,1.4,3.4,3.2,4.4,5.5c1,2.3,1.4,5.3,1.1,8.5h-5.3v-2
				c0-3.2-0.6-5.5-1.8-7.1c-1.2-1.5-3-2.3-5.4-2.3c-2.7,0-4.7,0.9-6,2.6c-1.4,1.7-2,4.1-2,7.3c0,3.1,0.6,5.4,2,7
				c1.4,1.6,3.3,2.5,5.8,2.5c1.7,0,3.1-0.4,4.3-1.1s2.2-1.8,2.8-3.2l5.2,1.6c-1.1,2.5-2.7,4.4-4.9,5.8
				C92.9,398.8,90.9,399.8,88.2,399.8z M78.4,386.8v-4.2h19.7v4.2H78.4z"/>
			<path class="st0" d="M132.1,399.8c-3.7,0-6.8-0.9-9.3-2.5s-4.5-3.8-5.9-6.8c-1.4-2.8-2.1-6.1-2.1-10s0.7-7.1,2.1-10
				c1.4-2.8,3.3-5.2,5.9-6.8s5.7-2.5,9.3-2.5s6.8,0.9,9.3,2.5c2.6,1.6,4.5,3.8,5.9,6.8c1.4,2.8,2.1,6.1,2.1,10s-0.7,7.1-2.1,10
				c-1.4,2.8-3.3,5.2-5.9,6.8C138.9,399,135.8,399.8,132.1,399.8z M132.1,394.7c2.6,0,4.8-0.5,6.5-1.7c1.7-1.2,3.1-2.8,3.9-4.9
				s1.4-4.5,1.4-7.4s-0.5-5.3-1.4-7.4c-0.9-2.1-2.2-3.7-3.9-4.9c-1.7-1.2-3.9-1.7-6.5-1.8c-2.6,0-4.8,0.5-6.5,1.7
				c-1.7,1.2-3.1,2.8-3.9,4.9c-0.9,2.1-1.4,4.5-1.4,7.4c0,2.8,0.4,5.3,1.2,7.4c0.9,2.1,2.2,3.7,3.9,4.9
				C127.3,394,129.5,394.7,132.1,394.7z"/>
			<path class="st0" d="M154.6,411.3v-39.7h4.8v19.8h0.6v19.9L154.6,411.3L154.6,411.3z M167.6,399.8c-2.6,0-4.8-0.6-6.6-2
				c-1.8-1.2-3.1-3.1-4.1-5.2c-0.9-2.2-1.4-4.7-1.4-7.4c0-2.7,0.5-5.2,1.4-7.4c0.9-2.2,2.2-3.9,4.1-5.2c1.7-1.2,3.9-1.8,6.5-1.8
				c2.6,0,4.8,0.6,6.6,1.8c1.8,1.2,3.3,3,4.3,5.2c1,2.2,1.5,4.7,1.5,7.4c0,2.7-0.5,5.3-1.5,7.4c-1,2.2-2.5,3.9-4.3,5.2
				C172.3,399.1,170.1,399.8,167.6,399.8z M166.9,394.9c1.7,0,3.1-0.5,4.2-1.4c1.1-0.9,2-2.1,2.5-3.6c0.5-1.5,0.9-3.1,0.9-4.9
				c0-1.8-0.2-3.4-0.9-4.9c-0.5-1.5-1.4-2.6-2.6-3.4c-1.1-0.9-2.6-1.4-4.3-1.4c-1.7,0-3.1,0.4-4.1,1.2c-1.1,0.9-1.8,2-2.3,3.4
				s-0.7,3.2-0.7,5c0,1.8,0.2,3.6,0.7,5c0.5,1.5,1.4,2.6,2.5,3.4C163.7,394.5,165.1,394.9,166.9,394.9z"/>
			<path class="st0" d="M198,399.8c-2.7,0-5.2-0.6-7.3-1.8c-2.1-1.2-3.7-2.8-4.8-5c-1.1-2.1-1.7-4.7-1.7-7.5c0-3,0.6-5.7,1.7-7.9
				c1.1-2.2,2.7-3.9,4.7-5.2c2-1.2,4.4-1.8,7-1.8c2.8,0,5.2,0.6,7.1,2c2,1.4,3.4,3.2,4.4,5.5c1,2.3,1.4,5.3,1.1,8.5H205v-2
				c0-3.2-0.6-5.5-1.8-7.1c-1.2-1.5-3-2.3-5.4-2.3c-2.7,0-4.7,0.9-6,2.6c-1.4,1.7-2,4.1-2,7.3c0,3.1,0.6,5.4,2,7
				c1.4,1.6,3.3,2.5,5.8,2.5c1.7,0,3.1-0.4,4.3-1.1c1.2-0.7,2.2-1.8,2.8-3.2l5.2,1.6c-1.1,2.5-2.7,4.4-4.9,5.8
				C202.7,398.8,200.6,399.8,198,399.8z M188.2,386.8v-4.2h19.7v4.2H188.2z"/>
			<path class="st0" d="M215.5,399v-27.5h4.8v8h0.6V399H215.5z M234.9,399v-13.5c0-1.1-0.1-2.2-0.2-3.3s-0.5-2.2-1-3.2
				c-0.5-1-1.2-1.7-2.1-2.3c-0.9-0.6-2.1-0.9-3.6-0.9c-1,0-1.8,0.1-2.7,0.5c-0.9,0.4-1.6,0.9-2.2,1.5c-0.6,0.7-1.1,1.6-1.5,2.7
				c-0.4,1.1-0.5,2.6-0.5,4.2l-3.3-1.2c0-2.5,0.5-4.7,1.4-6.6c0.9-2,2.3-3.4,4.1-4.4c1.7-1.1,3.8-1.6,6.4-1.6c1.8,0,3.4,0.2,4.8,0.9
				c1.4,0.6,2.3,1.5,3.2,2.5s1.5,2.1,1.8,3.2c0.4,1.2,0.7,2.3,0.9,3.4s0.2,2.1,0.2,3v15.2h-5.7V399z"/>
			<path class="st0" d="M270.5,399.8c-2.6,0-5-0.5-7.1-1.4c-2.1-0.9-3.8-2.2-5.2-3.9c-1.4-1.7-2.2-3.7-2.7-6l5.5-0.9
				c0.6,2.2,1.7,3.9,3.6,5.3c1.8,1.2,3.8,1.8,6.3,1.8c1.5,0,2.8-0.2,4.1-0.7c1.2-0.5,2.2-1.1,3-2c0.7-0.9,1.1-2,1.1-3.2
				c0-0.6-0.1-1.2-0.4-1.7c-0.2-0.5-0.5-1-1-1.4c-0.4-0.4-0.9-0.7-1.5-1c-0.6-0.2-1.2-0.5-1.8-0.7l-9.5-2.8
				c-0.9-0.2-1.8-0.6-2.8-1.1c-1-0.5-1.8-1-2.6-1.7s-1.5-1.6-2-2.6c-0.5-1.1-0.7-2.3-0.7-3.8c0-2.2,0.6-4.2,1.7-5.8
				c1.1-1.6,2.7-2.7,4.7-3.6c2-0.9,4.2-1.2,6.6-1.2s4.7,0.5,6.6,1.4c2,0.9,3.6,2.1,4.9,3.7c1.4,1.6,2.2,3.6,2.7,5.8l-5.7,1
				c-0.2-1.4-0.7-2.6-1.6-3.6c-0.9-1-1.8-1.7-3.1-2.3c-1.2-0.5-2.5-0.9-3.9-0.9c-1.4,0-2.6,0.1-3.7,0.6c-1.1,0.5-2.1,1.1-2.7,1.8
				c-0.6,0.7-1,1.7-1,2.7c0,1,0.2,1.8,0.9,2.5c0.6,0.6,1.4,1.1,2.2,1.5s1.7,0.6,2.6,0.9l6.8,2c0.9,0.2,1.8,0.6,3,1
				c1.1,0.4,2.1,1,3.2,1.7c1,0.7,1.8,1.7,2.5,2.8c0.6,1.1,1,2.7,1,4.4c0,1.8-0.4,3.4-1.1,4.9c-0.7,1.4-1.7,2.6-3.1,3.6
				c-1.4,1-2.8,1.6-4.5,2.1C274.2,399.6,272.5,399.8,270.5,399.8z"/>
			<path class="st0" d="M302.1,399.8c-2.7,0-5.2-0.6-7.1-1.8c-2-1.2-3.6-3-4.7-5.2c-1.1-2.2-1.6-4.7-1.6-7.5c0-2.8,0.6-5.4,1.7-7.6
				c1.1-2.2,2.7-3.9,4.7-5c2-1.2,4.4-1.8,7.1-1.8s5.2,0.6,7.1,1.8c2,1.2,3.6,3,4.7,5.2c1.1,2.2,1.6,4.7,1.6,7.5
				c0,2.8-0.6,5.4-1.7,7.6c-1.1,2.2-2.7,3.9-4.7,5.2C307.3,399.3,304.8,399.8,302.1,399.8z M302.1,394.8c2.6,0,4.5-0.9,5.9-2.7
				c1.4-1.7,2-4.1,2-6.9c0-2.8-0.6-5.2-2-6.9c-1.4-1.7-3.3-2.6-5.9-2.6c-1.8,0-3.2,0.4-4.4,1.2c-1.1,0.9-2,2-2.6,3.3
				c-0.6,1.5-0.9,3.1-0.9,4.9c0,3,0.6,5.2,2,6.9C297.6,393.8,299.5,394.8,302.1,394.8z"/>
			<path class="st0" d="M331.8,399.7c-1.8,0-3.4-0.2-4.8-0.9c-1.4-0.6-2.3-1.5-3.2-2.5c-0.9-1-1.5-2.1-1.8-3.2
				c-0.4-1.2-0.7-2.3-0.9-3.4c-0.1-1.1-0.2-2.1-0.2-3v-15.2h5.4v13.5c0,1.1,0.1,2.2,0.2,3.3c0.1,1.1,0.5,2.2,1,3.2s1.2,1.7,2.1,2.3
				c0.9,0.6,2.1,0.9,3.6,0.9c1,0,1.8-0.1,2.7-0.5c0.9-0.4,1.6-0.9,2.2-1.5c0.6-0.7,1.1-1.6,1.5-2.7c0.4-1.1,0.5-2.6,0.5-4.2l3.3,1.2
				c0,2.5-0.5,4.7-1.4,6.6c-1,2-2.3,3.4-4.1,4.4C336.3,399.2,334.2,399.7,331.8,399.7z M340.8,399v-8h-0.6v-19.5h5.4V399H340.8z"/>
			<path class="st0" d="M352.8,399v-27.5h4.8v6.6l-0.6-0.9c0.4-0.9,0.7-1.7,1.4-2.5c0.5-0.7,1.2-1.4,1.8-1.8
				c0.7-0.5,1.5-0.9,2.3-1.2c0.9-0.2,1.7-0.5,2.6-0.5c0.9,0,1.7,0,2.6,0.1v5c-0.9-0.2-1.8-0.2-3-0.2c-1.1,0.1-2.1,0.5-3.1,1
				c-0.9,0.6-1.6,1.2-2.1,2.1c-0.5,0.9-0.9,1.7-1.1,2.7c-0.2,1-0.4,2-0.4,3.1v13.9h-5.3V399z"/>
			<path class="st0" d="M383.9,399.8c-2.8,0-5.2-0.6-7.1-1.8c-2-1.2-3.4-3-4.5-5.2c-1.1-2.2-1.6-4.7-1.6-7.5c0-2.8,0.6-5.4,1.6-7.5
				c1.1-2.2,2.6-3.9,4.5-5.2s4.4-1.8,7.1-1.8c3,0,5.5,0.7,7.7,2.2c2.1,1.5,3.6,3.6,4.2,6.1l-5.3,1.5c-0.5-1.6-1.4-2.7-2.6-3.6
				c-1.2-0.9-2.6-1.2-4.1-1.2c-1.7,0-3.2,0.4-4.3,1.2c-1.1,0.9-2,2-2.5,3.3c-0.5,1.5-0.9,3.1-0.9,4.9c0,2.8,0.6,5.2,2,6.9
				c1.4,1.7,3.2,2.6,5.7,2.6c1.7,0,3.1-0.4,4.2-1.2c1.1-0.7,1.8-2,2.5-3.4l5.4,1.2c-0.9,2.7-2.3,4.8-4.4,6.1
				C389.3,399.1,386.8,399.8,383.9,399.8z"/>
			<path class="st0" d="M412.6,399.8c-2.7,0-5.2-0.6-7.3-1.8c-2.1-1.2-3.7-2.8-4.8-5c-1.1-2.1-1.7-4.7-1.7-7.5c0-3,0.6-5.7,1.7-7.9
				c1.1-2.2,2.7-3.9,4.7-5.2c2-1.2,4.4-1.8,7-1.8c2.8,0,5.2,0.6,7.1,2c2,1.4,3.4,3.2,4.4,5.5c1,2.3,1.4,5.3,1.1,8.5h-5.3v-2
				c0-3.2-0.6-5.5-1.8-7.1c-1.2-1.5-3-2.3-5.4-2.3c-2.7,0-4.7,0.9-6,2.6c-1.4,1.7-2,4.1-2,7.3c0,3.1,0.6,5.4,2,7
				c1.4,1.6,3.3,2.5,5.8,2.5c1.7,0,3.1-0.4,4.3-1.1s2.2-1.8,2.8-3.2l5.2,1.6c-1.1,2.5-2.7,4.4-4.9,5.8
				C417.3,398.8,415.2,399.8,412.6,399.8z M402.8,386.8v-4.2h19.7v4.2H402.8z"/>
			<path class="st0" d="M454.4,399.8c-2.6,0-5-0.5-7.1-1.4c-2.1-0.9-3.8-2.2-5.2-3.9c-1.4-1.7-2.2-3.7-2.7-6l5.5-0.9
				c0.6,2.2,1.7,3.9,3.6,5.3c1.8,1.2,3.8,1.8,6.3,1.8c1.5,0,2.8-0.2,4.1-0.7s2.2-1.1,3-2c0.7-0.9,1.1-2,1.1-3.2
				c0-0.6-0.1-1.2-0.4-1.7c-0.2-0.5-0.5-1-1-1.4c-0.4-0.4-0.9-0.7-1.5-1c-0.6-0.2-1.2-0.5-1.8-0.7l-9.5-2.8
				c-0.9-0.2-1.8-0.6-2.8-1.1s-1.8-1-2.6-1.7s-1.5-1.6-2-2.6c-0.5-1.1-0.7-2.3-0.7-3.8c0-2.2,0.6-4.2,1.7-5.8
				c1.1-1.6,2.7-2.7,4.7-3.6c2-0.9,4.2-1.2,6.6-1.2s4.7,0.5,6.6,1.4c2,0.9,3.6,2.1,4.9,3.7c1.4,1.6,2.2,3.6,2.7,5.8l-5.7,1
				c-0.2-1.4-0.9-2.6-1.6-3.6c-0.9-1-1.8-1.7-3.1-2.3c-1.2-0.5-2.5-0.9-3.9-0.9c-1.4,0-2.6,0.1-3.7,0.6c-1.1,0.5-2.1,1.1-2.7,1.8
				c-0.6,0.7-1,1.7-1,2.7c0,1,0.2,1.8,0.9,2.5c0.6,0.6,1.4,1.1,2.2,1.5s1.7,0.6,2.6,0.9l6.8,2c0.9,0.2,1.8,0.6,3,1
				c1.1,0.4,2.1,1,3.1,1.7s1.8,1.7,2.5,2.8c0.6,1.1,1,2.7,1,4.4c0,1.8-0.4,3.4-1.1,4.9c-0.7,1.4-1.7,2.6-3.1,3.6s-2.8,1.6-4.5,2.1
				C458.1,399.6,456.4,399.8,454.4,399.8z"/>
			<path class="st0" d="M486.3,399.8c-2.7,0-5.2-0.6-7.3-1.8c-2.1-1.2-3.7-2.8-4.8-5c-1.1-2.1-1.7-4.7-1.7-7.5c0-3,0.6-5.7,1.7-7.9
				c1.1-2.2,2.7-3.9,4.7-5.2c2-1.2,4.4-1.8,7-1.8c2.8,0,5.2,0.6,7.1,2c2,1.4,3.4,3.2,4.4,5.5c1,2.3,1.4,5.3,1.1,8.5h-5.3v-2
				c0-3.2-0.6-5.5-1.8-7.1c-1.2-1.6-3-2.3-5.4-2.3c-2.7,0-4.7,0.9-6,2.6c-1.4,1.7-2,4.1-2,7.3c0,3.1,0.6,5.4,2,7
				c1.4,1.6,3.3,2.5,5.8,2.5c1.7,0,3.1-0.4,4.3-1.1c1.2-0.7,2.2-1.8,2.8-3.2l5.2,1.6c-1.1,2.5-2.7,4.4-4.9,5.8
				C491,398.8,489,399.8,486.3,399.8z M476.4,386.8v-4.2h19.7v4.2H476.4z"/>
			<path class="st0" d="M516.4,399.8c-2.8,0-5.2-0.6-7.1-1.8c-2-1.2-3.4-3-4.5-5.2c-1-2.2-1.6-4.7-1.6-7.5c0-2.8,0.6-5.4,1.6-7.5
				c1.1-2.2,2.6-3.9,4.5-5.2s4.4-1.8,7.1-1.8c3,0,5.5,0.7,7.7,2.2c2.1,1.5,3.6,3.6,4.2,6.1l-5.3,1.5c-0.5-1.6-1.4-2.7-2.6-3.6
				c-1.2-0.9-2.6-1.2-4.1-1.2c-1.7,0-3.2,0.4-4.3,1.2c-1.1,0.9-2,2-2.5,3.3c-0.5,1.5-0.9,3.1-0.9,4.9c0,2.8,0.6,5.2,2,6.9
				c1.2,1.7,3.2,2.6,5.7,2.6c1.7,0,3.1-0.4,4.2-1.2c1.1-0.7,1.8-2,2.5-3.4l5.4,1.2c-0.9,2.7-2.3,4.8-4.4,6.1
				C521.8,399.1,519.3,399.8,516.4,399.8z"/>
			<path class="st0" d="M544.1,399.7c-1.8,0-3.4-0.2-4.8-0.9c-1.4-0.6-2.3-1.5-3.2-2.5c-0.9-1-1.5-2.1-1.8-3.2
				c-0.4-1.2-0.7-2.3-0.9-3.4s-0.2-2.1-0.2-3v-15.2h5.4v13.5c0,1.1,0.1,2.2,0.2,3.3c0.1,1.1,0.5,2.2,1,3.2c0.5,1,1.2,1.7,2.1,2.3
				c0.9,0.6,2.1,0.9,3.6,0.9c1,0,1.8-0.1,2.7-0.5c0.9-0.4,1.6-0.9,2.2-1.5c0.6-0.7,1.1-1.6,1.5-2.7c0.4-1.1,0.5-2.6,0.5-4.2l3.3,1.2
				c0,2.5-0.5,4.7-1.4,6.6c-1,2-2.3,3.4-4.1,4.4C548.5,399.2,546.5,399.7,544.1,399.7z M553.2,399v-8h-0.6v-19.5h5.4V399H553.2z"/>
			<path class="st0" d="M565.1,399v-27.5h4.8v6.6l-0.6-0.9c0.4-0.9,0.7-1.7,1.4-2.5c0.5-0.7,1.2-1.4,1.8-1.8
				c0.7-0.5,1.5-0.9,2.3-1.2c0.9-0.2,1.7-0.5,2.6-0.5s1.7,0,2.6,0.1v5c-0.9-0.2-1.8-0.2-3-0.2c-1.1,0.1-2.1,0.5-3.1,1
				c-0.9,0.6-1.6,1.2-2.1,2.1c-0.5,0.9-0.9,1.7-1.1,2.7c-0.2,1-0.4,2-0.4,3.1v13.9h-5.3V399z"/>
			<path class="st0" d="M585.5,367v-5.2h5.3v5.2H585.5z M585.5,399v-27.5h5.3V399H585.5z"/>
			<path class="st0" d="M595.4,375.7v-4.3h18.8v4.3H595.4z M614.3,399c-1.7,0.4-3.4,0.5-5,0.5c-1.7,0-3.2-0.4-4.4-1
				c-1.2-0.6-2.3-1.5-3-2.8c-0.6-1.1-0.9-2.3-1-3.4c0-1.2-0.1-2.5-0.1-4.1v-24.3h5.4v24.1c0,1.1,0,2.1,0,2.8c0,0.9,0.2,1.5,0.5,2.1
				c0.6,1.1,1.6,1.6,3,1.8c1.4,0.1,3,0.1,4.7-0.1L614.3,399L614.3,399z"/>
			<path class="st0" d="M623.1,411.3l5.3-14.5l0.1,4.3l-12-29.5h5.5l9,22.9h-1.6l8.6-22.9h5.4l-15.2,39.7H623.1z"/>
			<path class="st0" d="M657.8,399v-36.8h14.9c0.4,0,0.7,0,1.4,0s1,0.1,1.5,0.1c2.1,0.4,3.7,1,5.2,2.1c1.4,1.1,2.3,2.5,3.1,4.1
				s1,3.4,1,5.4s-0.4,3.8-1,5.4c-0.7,1.6-1.7,3-3.1,4.1c-1.4,1.1-3.1,1.7-5.2,2.1c-0.5,0.1-1,0.1-1.5,0.1s-1,0-1.4,0h-9.5v13.2h-5.4
				V399z M663.1,380.8h9.3c0.4,0,0.7,0,1.1,0c0.4,0,0.9-0.1,1.2-0.1c1.1-0.2,2-0.7,2.6-1.5c0.6-0.7,1.1-1.5,1.5-2.3s0.5-1.8,0.5-2.7
				c0-0.9-0.1-1.8-0.5-2.7c-0.4-0.9-0.7-1.7-1.5-2.3c-0.6-0.7-1.6-1.1-2.6-1.5c-0.4-0.1-0.7-0.1-1.2-0.2c-0.4,0-0.7,0-1.1,0h-9.3
				V380.8z"/>
			<path class="st0" d="M690.3,399v-37.5h5.3V399H690.3z"/>
			<path class="st0" d="M711.1,399.8c-2.1,0-3.7-0.4-5.2-1.1c-1.4-0.7-2.5-1.7-3.1-3c-0.7-1.2-1.1-2.6-1.1-4.1
				c0-1.4,0.2-2.6,0.7-3.7c0.5-1.1,1.2-2,2.2-2.7s2.2-1.4,3.6-1.8c1.2-0.4,2.6-0.6,4.2-1c1.6-0.2,3.2-0.5,4.9-0.7
				c1.7-0.2,3.4-0.5,5-0.7l-2,1.1c0-2.2-0.4-3.8-1.4-4.8s-2.6-1.6-4.8-1.6c-1.5,0-2.8,0.4-3.9,1c-1.2,0.6-2.1,1.7-2.6,3.3l-4.9-1.5
				c0.7-2.3,2-4.2,3.9-5.7c2-1.4,4.4-2.1,7.6-2.1c2.5,0,4.7,0.4,6.4,1.2c1.8,0.9,3.2,2.2,4.1,3.9c0.5,0.9,0.7,1.8,0.9,2.8
				c0.1,1,0.1,2.1,0.1,3.2v17h-4.7v-6.3l0.9,0.9c-1.1,2.1-2.6,3.7-4.3,4.7C715.9,399.2,713.7,399.8,711.1,399.8z M712.1,395.4
				c1.5,0,2.8-0.2,3.9-0.9c1.1-0.6,2-1.2,2.6-2.1c0.6-0.9,1.1-1.7,1.4-2.6c0.2-0.9,0.5-1.7,0.5-2.7c0-1,0.1-1.8,0.1-2.5l1.7,0.6
				c-1.7,0.2-3.2,0.5-4.5,0.7c-1.4,0.2-2.6,0.4-3.7,0.6c-1.1,0.2-2.1,0.4-3,0.7c-0.7,0.2-1.4,0.6-2,0.9c-0.6,0.2-1,0.7-1.4,1.4
				c-0.4,0.6-0.5,1.1-0.5,1.8s0.1,1.4,0.5,2c0.4,0.6,0.9,1.1,1.6,1.5C710,395.3,711,395.4,712.1,395.4z"/>
			<path class="st0" d="M729.4,375.7v-4.3h18.8v4.3H729.4z M748.3,399c-1.7,0.4-3.4,0.5-5,0.5c-1.7,0-3.2-0.4-4.4-1
				c-1.2-0.6-2.3-1.5-3-2.8c-0.6-1.1-0.9-2.3-1-3.4c0-1.2-0.1-2.5-0.1-4.1v-24.3h5.4v24.1c0,1.1,0,2.1,0,2.8c0,0.9,0.2,1.5,0.5,2.1
				c0.6,1.1,1.6,1.6,3,1.8c1.4,0.1,3,0.1,4.7-0.1L748.3,399L748.3,399z"/>
			<path class="st0" d="M752.2,375.7v-4.3H769v4.3H752.2z M756.7,399v-28.5c0-0.7,0-1.5,0.1-2.2c0-0.7,0.2-1.6,0.5-2.3
				c0.2-0.7,0.6-1.5,1.2-2.1c0.7-0.7,1.5-1.4,2.3-1.6c0.9-0.4,1.7-0.5,2.5-0.6c0.9,0,1.6-0.1,2.3-0.1h3.4v4.4H766
				c-1.2,0-2.2,0.4-2.8,1c-0.6,0.6-1,1.5-1,2.6V399H756.7z"/>
			<path class="st0" d="M784.1,399.8c-2.7,0-5.2-0.6-7.1-1.8c-2-1.2-3.6-3-4.7-5.2c-1.1-2.2-1.6-4.7-1.6-7.5c0-2.8,0.6-5.4,1.7-7.6
				c1.1-2.2,2.7-3.9,4.7-5c2-1.2,4.4-1.8,7.1-1.8c2.7,0,5.2,0.6,7.1,1.8c2,1.2,3.6,3,4.7,5.2c1.1,2.2,1.6,4.7,1.6,7.5
				c0,2.8-0.6,5.4-1.7,7.6c-1.1,2.2-2.7,3.9-4.7,5.2C789.2,399.2,786.9,399.8,784.1,399.8z M784.1,394.8c2.6,0,4.5-0.9,5.9-2.7
				s2-4.1,2-6.9c0-2.8-0.6-5.2-2-6.9c-1.4-1.7-3.3-2.6-5.9-2.6c-1.8,0-3.2,0.4-4.4,1.2c-1.1,0.9-2,2-2.6,3.3
				c-0.6,1.5-0.9,3.1-0.9,4.9c0,3,0.6,5.2,2,6.9C779.6,393.9,781.6,394.8,784.1,394.8z"/>
			<path class="st0" d="M803.3,399v-27.5h4.8v6.6l-0.6-0.9c0.4-0.9,0.7-1.7,1.4-2.5c0.5-0.7,1.2-1.4,1.8-1.8
				c0.7-0.5,1.5-0.9,2.3-1.2c0.9-0.2,1.7-0.5,2.6-0.5c0.9,0,1.7,0,2.6,0.1v5c-0.9-0.2-1.8-0.2-3-0.2c-1.1,0.1-2.1,0.5-3.1,1
				c-0.9,0.6-1.6,1.2-2.1,2.1c-0.5,0.9-0.9,1.7-1.1,2.7c-0.2,1-0.4,2-0.4,3.1v13.9h-5.3V399z"/>
			<path class="st0" d="M823.1,399v-27.5h4.8v8h0.6V399H823.1z M839.6,399v-17.1c0-2-0.5-3.6-1.5-4.7c-1-1.1-2.3-1.7-4.1-1.7
				s-3.1,0.6-4.1,1.7c-1,1.1-1.6,2.7-1.6,4.5l-2.6-1.6c0-1.8,0.5-3.4,1.4-4.8c0.9-1.4,2.1-2.6,3.6-3.3s3.2-1.2,5-1.2
				c2,0,3.6,0.4,5,1.2c1.4,0.9,2.5,2,3.2,3.4c0.7,1.5,1.1,3.2,1.1,5.2V399L839.6,399L839.6,399z M856.1,399v-17.2
				c0-2-0.5-3.6-1.5-4.7s-2.3-1.7-4.1-1.7c-1,0-2,0.2-2.8,0.7s-1.5,1.1-2.1,2.1c-0.5,1-0.7,2.1-0.7,3.4l-2.6-1.4c0-2,0.4-3.7,1.2-5
				c0.9-1.4,2-2.6,3.6-3.4c1.5-0.9,3.2-1.2,4.9-1.2c3,0,5.3,0.9,6.9,2.7c1.6,1.8,2.5,4.2,2.5,7.1v18.4h-5.3V399z"/>
		</g>
	</g>
</g>
</svg>
