<?xml version="1.0" encoding="utf-8"?>
<!-- Generator: Adobe Illustrator 26.0.3, SVG Export Plug-In . SVG Version: 6.00 Build 0)  -->
<svg version="1.1" id="Capa_1" xmlns="http://www.w3.org/2000/svg" xmlns:xlink="http://www.w3.org/1999/xlink" width="872px" height="420px" x="0px" y="0px"
	 viewBox="0 0 872 420" style="enable-background:new 0 0 872 420;" xml:space="preserve">
<style type="text/css">
	.st0{fill:#FFFFFF;}
</style>
<g>
	<g>
		<polygon class="st0" points="142.9,270.2 114.7,178.3 92.3,178.3 64,270.2 36,178.2 10.3,178.2 51.3,312.3 72.1,312.3 
			103.5,215.2 134.8,312.3 155.6,312.3 196.5,178.3 171,178.3 		"/>
		<polygon class="st0" points="378.3,201.5 447.4,201.5 371.4,308.2 371.4,312.3 484.9,312.3 484.9,289.1 412.7,289.1 488.6,182.5 
			488.6,178.3 378.3,178.3 		"/>
		<path class="st0" d="M319.7,192.4c-11.5-12-27.2-18.3-45.6-18.3c-39,0-68.4,30.6-68.4,71.3c0,40.6,29.4,71.3,68.4,71.3
			c18.4,0,34.1-6.3,45.6-18.2v15.4h26.2V176.9h-26.2V192.4z M276.8,292c-25.8,0-44.5-19.6-44.5-46.6c0-26.9,18.7-46.4,44.5-46.4
			c25.7,0,44.3,19.5,44.3,46.4C321.1,272.4,302.5,292,276.8,292z"/>
		<path class="st0" d="M610.7,254.1c0,24.1-13.2,37.8-36.3,37.8c-23.2,0-36.4-13.8-36.4-37.8v-77.2h-26.2v79.3
			c0,44.6,33.8,60.4,62.7,60.4c28.9,0,62.5-15.8,62.5-60.4v-79.3h-26.2V254.1z"/>
		<path class="st0" d="M788.7,223.4c-0.7-5.5-2.2-11-4.2-16.7s-5.1-11-9-15.8c-3.9-4.8-9-8.7-15.3-11.7c-6.3-3-14.1-4.5-23.3-4.5
			c-12.1,0-22.4,2.6-30.9,7.8c-5.2,3.2-9.7,7.1-13.4,11.9v-52h-23.2v169.9h26.3v-69.7c0-7.9,0.9-14.7,2.7-20.2
			c1.8-5.5,4.2-10,7.3-13.4c3.1-3.4,6.7-5.9,10.9-7.4c4.1-1.5,8.5-2.3,13.2-2.3c7.1,0,12.9,1.4,17.3,4.3c4.4,2.9,7.9,6.7,10.3,11.4
			c2.4,4.7,4.1,9.8,5,15.3c0.9,5.5,1.3,10.9,1.3,16.1v65.9h26.3v-74.4C789.8,233.7,789.4,228.9,788.7,223.4z"/>
		<circle cx="839.9" cy="293.8" r="21.1"/>
	</g>
	<g>
		<g>
			<path class="st0" d="M181,92.4l-19.1-66h7l15.5,54.5l15.4-54.5l7.1,0l15.5,54.5l15.4-54.5h7.1l-19,66h-6.8l-15.6-54.1l-15.5,54.1
				H181z"/>
			<path class="st0" d="M268.1,93.7c-4.8,0-9-1.1-12.5-3.2c-3.5-2.1-6.3-5.2-8.2-9c-2-3.9-2.9-8.4-2.9-13.7c0-5.4,1-10.1,2.9-14
				c1.9-3.9,4.6-7,8.1-9.1c3.5-2.1,7.6-3.2,12.4-3.2c4.9,0,9.1,1.1,12.5,3.4c3.5,2.2,6.1,5.5,7.8,9.7c1.8,4.2,2.6,9.2,2.4,15h-6.9
				v-2.4c-0.1-6.4-1.5-11.3-4.1-14.5c-2.6-3.3-6.5-4.9-11.6-4.9c-5.3,0-9.4,1.7-12.2,5.2c-2.8,3.5-4.2,8.4-4.2,14.8
				c0,6.2,1.4,11.1,4.2,14.5c2.8,3.4,6.8,5.2,12,5.2c3.5,0,6.6-0.8,9.3-2.5c2.6-1.6,4.7-4,6.3-7.1l6.3,2.4c-2,4.3-4.8,7.6-8.6,10
				C277.2,92.5,272.9,93.7,268.1,93.7z M249.2,69.5v-5.6H287v5.6H249.2z"/>
			<path class="st0" d="M301.7,92.4V25h6.7v67.4H301.7z"/>
			<path class="st0" d="M342.7,93.7c-5,0-9.2-1.1-12.7-3.3c-3.5-2.2-6.1-5.3-7.9-9.2c-1.8-3.9-2.7-8.4-2.8-13.5
				c0.1-5.2,1-9.8,2.8-13.7c1.8-3.9,4.5-7,7.9-9.2c3.5-2.2,7.6-3.3,12.6-3.3c5,0,9.4,1.2,13.1,3.7c3.7,2.4,6.3,5.8,7.6,10l-6.6,2.1
				c-1.2-3-3-5.3-5.5-6.9c-2.5-1.6-5.4-2.5-8.6-2.5c-3.6,0-6.6,0.8-9,2.5c-2.4,1.7-4.2,4-5.3,6.9c-1.2,3-1.8,6.4-1.8,10.2
				c0.1,5.9,1.4,10.7,4.1,14.3c2.7,3.6,6.7,5.4,12,5.4c3.4,0,6.2-0.8,8.6-2.3c2.4-1.5,4.2-3.8,5.4-6.8l6.8,2
				c-1.8,4.4-4.5,7.8-8.1,10.1C351.8,92.6,347.6,93.7,342.7,93.7z"/>
			<path class="st0" d="M392.2,93.7c-4.9,0-9.1-1.1-12.6-3.3s-6.2-5.3-8-9.3c-1.9-3.9-2.8-8.5-2.8-13.6c0-5.2,0.9-9.8,2.8-13.7
				c1.9-3.9,4.6-7,8.1-9.1c3.5-2.2,7.7-3.3,12.5-3.3c5,0,9.2,1.1,12.7,3.3c3.5,2.2,6.2,5.3,8,9.2c1.8,3.9,2.8,8.4,2.8,13.5
				c0,5.2-0.9,9.8-2.8,13.7c-1.9,3.9-4.6,7-8.1,9.2C401.3,92.6,397.1,93.7,392.2,93.7z M392.2,87.3c5.5,0,9.6-1.8,12.3-5.5
				c2.7-3.7,4-8.4,4-14.2c0-6-1.4-10.8-4.1-14.3s-6.8-5.3-12.3-5.3c-3.7,0-6.7,0.8-9.1,2.5c-2.4,1.7-4.2,4-5.4,6.9
				c-1.2,3-1.8,6.4-1.8,10.2c0,6,1.4,10.7,4.1,14.3C382.8,85.5,386.9,87.3,392.2,87.3z"/>
			<path class="st0" d="M425.7,92.4V42.8h6.1V55h0.7v37.3H425.7z M455.3,92.4l0-32c0-3.9-1-7.1-3.1-9.3c-2.1-2.3-4.9-3.4-8.3-3.4
				s-6.2,1.2-8.3,3.5c-2.1,2.3-3.2,5.4-3.2,9.3l-4-2.2c0-3.2,0.7-6,2.2-8.6c1.5-2.5,3.5-4.5,6.1-6c2.6-1.5,5.5-2.2,8.8-2.2
				c3.1,0,6,0.7,8.4,2c2.5,1.3,4.4,3.3,5.8,5.9c1.4,2.6,2.1,5.7,2.1,9.4l0,33.6H455.3z M484.8,92.4l0-32.5c0-3.8-1.1-6.8-3.2-9
				c-2.1-2.2-4.8-3.3-8.1-3.3c-1.9,0-3.7,0.4-5.5,1.3c-1.8,0.9-3.2,2.2-4.4,4.1c-1.1,1.9-1.7,4.4-1.7,7.4l-4-1.1
				c-0.1-3.5,0.6-6.6,2.1-9.3c1.5-2.7,3.5-4.7,6.1-6.2c2.6-1.5,5.6-2.2,8.9-2.2c5,0,9,1.5,12,4.6c3,3.1,4.5,7.2,4.5,12.4l0,33.8
				H484.8z"/>
			<path class="st0" d="M524.2,93.7c-4.8,0-9-1.1-12.5-3.2c-3.5-2.1-6.3-5.2-8.2-9c-2-3.9-2.9-8.4-2.9-13.7c0-5.4,1-10.1,2.9-14
				c1.9-3.9,4.6-7,8.1-9.1c3.5-2.1,7.6-3.2,12.4-3.2c4.9,0,9.1,1.1,12.5,3.4c3.5,2.2,6.1,5.5,7.8,9.7c1.8,4.2,2.6,9.2,2.4,15h-6.9
				v-2.4c-0.1-6.4-1.5-11.3-4.1-14.5c-2.6-3.3-6.5-4.9-11.6-4.9c-5.3,0-9.4,1.7-12.2,5.2c-2.8,3.5-4.2,8.4-4.2,14.8
				c0,6.2,1.4,11.1,4.2,14.5s6.8,5.2,12,5.2c3.5,0,6.6-0.8,9.3-2.5c2.6-1.6,4.7-4,6.3-7.1l6.3,2.4c-2,4.3-4.8,7.6-8.6,10
				C533.3,92.5,529,93.7,524.2,93.7z M505.2,69.5v-5.6h37.8v5.6H505.2z"/>
			<path class="st0" d="M569.6,48.6v-5.8h32.5v5.8H569.6z M602.1,92.4c-2.8,0.6-5.5,0.8-8.2,0.7c-2.7-0.1-5.1-0.7-7.2-1.7
				c-2.1-1-3.7-2.7-4.8-4.9c-0.9-1.8-1.4-3.7-1.4-5.6s-0.1-4-0.1-6.4V29.1h6.7v45.1c0,2.1,0,3.8,0.1,5.2c0,1.4,0.4,2.6,0.9,3.7
				c1.1,2,2.9,3.3,5.2,3.7c2.4,0.4,5.4,0.3,8.9-0.3V92.4z"/>
			<path class="st0" d="M630.7,93.7c-4.9,0-9.1-1.1-12.6-3.3c-3.5-2.2-6.2-5.3-8-9.3c-1.9-3.9-2.8-8.5-2.8-13.6
				c0-5.2,0.9-9.8,2.8-13.7c1.9-3.9,4.6-7,8.1-9.1c3.5-2.2,7.7-3.3,12.5-3.3c5,0,9.2,1.1,12.7,3.3c3.5,2.2,6.2,5.3,8,9.2
				c1.8,3.9,2.8,8.4,2.8,13.5c0,5.2-0.9,9.8-2.8,13.7c-1.9,3.9-4.6,7-8.1,9.2C639.8,92.6,635.6,93.7,630.7,93.7z M630.7,87.3
				c5.5,0,9.6-1.8,12.3-5.5c2.7-3.7,4-8.4,4-14.2c0-6-1.4-10.8-4.1-14.3s-6.8-5.3-12.3-5.3c-3.7,0-6.7,0.8-9.1,2.5
				c-2.4,1.7-4.2,4-5.4,6.9c-1.2,3-1.8,6.4-1.8,10.2c0,6,1.4,10.7,4.1,14.3C621.3,85.5,625.4,87.3,630.7,87.3z"/>
		</g>
	</g>
	<g>
		<g>
			<path class="st0" d="M87.4,395.9v-25.8h-9.9v-4.1h24.2v4.1h-9.9v25.8H87.4z"/>
			<path class="st0" d="M105.1,395.9v-29.9h3.9v16.1h0.5v13.7H105.1z M120.8,395.9v-11c0-0.9-0.1-1.8-0.2-2.7
				c-0.1-0.9-0.4-1.8-0.8-2.6c-0.4-0.8-1-1.4-1.7-1.9c-0.7-0.5-1.7-0.7-2.9-0.7c-0.8,0-1.5,0.1-2.2,0.4c-0.7,0.3-1.3,0.7-1.8,1.2
				c-0.5,0.6-0.9,1.3-1.2,2.2c-0.3,0.9-0.4,2.1-0.4,3.4l-2.7-1c0-2,0.4-3.8,1.1-5.4s1.9-2.8,3.3-3.6c1.4-0.9,3.1-1.3,5.2-1.3
				c1.5,0,2.8,0.2,3.9,0.7c1.1,0.5,1.9,1.2,2.6,2c0.7,0.8,1.2,1.7,1.5,2.6c0.3,1,0.6,1.9,0.7,2.8s0.2,1.7,0.2,2.4v12.4H120.8z"/>
			<path class="st0" d="M140.6,396.6c-2.2,0-4.2-0.5-5.9-1.5s-3-2.3-3.9-4.1c-0.9-1.7-1.4-3.8-1.4-6.1c0-2.4,0.5-4.6,1.4-6.4
				c0.9-1.8,2.2-3.2,3.8-4.2c1.6-1,3.6-1.5,5.7-1.5c2.3,0,4.2,0.5,5.8,1.6c1.6,1.1,2.8,2.6,3.6,4.5c0.8,1.9,1.1,4.3,0.9,6.9h-4.3
				v-1.6c0-2.6-0.5-4.5-1.5-5.8c-1-1.2-2.4-1.9-4.4-1.9c-2.2,0-3.8,0.7-4.9,2.1s-1.6,3.3-1.6,5.9c0,2.5,0.5,4.4,1.6,5.7s2.7,2,4.7,2
				c1.4,0,2.5-0.3,3.5-0.9c1-0.6,1.8-1.5,2.3-2.6l4.2,1.3c-0.9,2-2.2,3.6-4,4.7S142.8,396.6,140.6,396.6z M132.6,386v-3.4h16v3.4
				H132.6z"/>
			<path class="st0" d="M176.3,396.6c-3,0-5.5-0.7-7.6-2c-2.1-1.3-3.7-3.1-4.8-5.5c-1.1-2.3-1.7-5-1.7-8.1c0-3.1,0.6-5.8,1.7-8.1
				c1.1-2.3,2.7-4.2,4.8-5.5c2.1-1.3,4.6-2,7.6-2c3,0,5.5,0.7,7.6,2c2.1,1.3,3.7,3.1,4.8,5.5c1.1,2.3,1.7,5,1.7,8.1
				c0,3.1-0.6,5.8-1.7,8.1c-1.1,2.3-2.7,4.2-4.8,5.5C181.8,395.9,179.3,396.6,176.3,396.6z M176.3,392.4c2.1,0,3.9-0.4,5.3-1.4
				c1.4-1,2.5-2.3,3.2-4c0.7-1.7,1.1-3.7,1.1-6c0-2.3-0.4-4.3-1.1-6c-0.7-1.7-1.8-3-3.2-4c-1.4-1-3.2-1.4-5.3-1.5
				c-2.1,0-3.9,0.4-5.3,1.4c-1.4,1-2.5,2.3-3.2,4c-0.7,1.7-1.1,3.7-1.1,6c0,2.3,0.3,4.3,1,6s1.8,3,3.2,4
				C172.4,391.9,174.2,392.4,176.3,392.4z"/>
			<path class="st0" d="M194.6,405.9v-32.3h3.9v16.1h0.5v16.2H194.6z M205.2,396.6c-2.1,0-3.9-0.5-5.4-1.6c-1.5-1-2.5-2.5-3.3-4.2
				c-0.7-1.8-1.1-3.8-1.1-6c0-2.2,0.4-4.2,1.1-6c0.7-1.8,1.8-3.2,3.3-4.2c1.4-1,3.2-1.5,5.3-1.5c2.1,0,3.9,0.5,5.4,1.5
				c1.5,1,2.7,2.4,3.5,4.2c0.8,1.8,1.2,3.8,1.2,6c0,2.2-0.4,4.3-1.2,6c-0.8,1.8-2,3.2-3.5,4.2C209,396,207.2,396.6,205.2,396.6z
				 M204.6,392.6c1.4,0,2.5-0.4,3.4-1.1c0.9-0.7,1.6-1.7,2-2.9c0.4-1.2,0.7-2.5,0.7-4c0-1.5-0.2-2.8-0.7-4c-0.4-1.2-1.1-2.1-2.1-2.8
				c-0.9-0.7-2.1-1.1-3.5-1.1c-1.4,0-2.5,0.3-3.3,1c-0.9,0.7-1.5,1.6-1.9,2.8c-0.4,1.2-0.6,2.6-0.6,4.1c0,1.5,0.2,2.9,0.6,4.1
				c0.4,1.2,1.1,2.1,2,2.8C202,392.3,203.1,392.6,204.6,392.6z"/>
			<path class="st0" d="M229.9,396.6c-2.2,0-4.2-0.5-5.9-1.5s-3-2.3-3.9-4.1c-0.9-1.7-1.4-3.8-1.4-6.1c0-2.4,0.5-4.6,1.4-6.4
				c0.9-1.8,2.2-3.2,3.8-4.2c1.6-1,3.6-1.5,5.7-1.5c2.3,0,4.2,0.5,5.8,1.6c1.6,1.1,2.8,2.6,3.6,4.5c0.8,1.9,1.1,4.3,0.9,6.9h-4.3
				v-1.6c0-2.6-0.5-4.5-1.5-5.8c-1-1.2-2.4-1.9-4.4-1.9c-2.2,0-3.8,0.7-4.9,2.1s-1.6,3.3-1.6,5.9c0,2.5,0.5,4.4,1.6,5.7s2.7,2,4.7,2
				c1.4,0,2.5-0.3,3.5-0.9c1-0.6,1.8-1.5,2.3-2.6l4.2,1.3c-0.9,2-2.2,3.6-4,4.7S232,396.6,229.9,396.6z M221.9,386v-3.4h16v3.4
				H221.9z"/>
			<path class="st0" d="M244.1,395.9v-22.4h3.9v6.5h0.5v15.9H244.1z M259.9,395.9v-11c0-0.9-0.1-1.8-0.2-2.7
				c-0.1-0.9-0.4-1.8-0.8-2.6c-0.4-0.8-1-1.4-1.7-1.9c-0.7-0.5-1.7-0.7-2.9-0.7c-0.8,0-1.5,0.1-2.2,0.4c-0.7,0.3-1.3,0.7-1.8,1.2
				c-0.5,0.6-0.9,1.3-1.2,2.2c-0.3,0.9-0.4,2.1-0.4,3.4l-2.7-1c0-2,0.4-3.8,1.1-5.4s1.9-2.8,3.3-3.6c1.4-0.9,3.1-1.3,5.2-1.3
				c1.5,0,2.8,0.2,3.9,0.7c1.1,0.5,1.9,1.2,2.6,2c0.7,0.8,1.2,1.7,1.5,2.6c0.3,1,0.6,1.9,0.7,2.8s0.2,1.7,0.2,2.4v12.4H259.9z"/>
			<path class="st0" d="M288.9,396.6c-2.1,0-4.1-0.4-5.8-1.1s-3.1-1.8-4.2-3.2c-1.1-1.4-1.8-3-2.2-4.9l4.5-0.7
				c0.5,1.8,1.4,3.2,2.9,4.3c1.5,1,3.1,1.5,5.1,1.5c1.2,0,2.3-0.2,3.3-0.6c1-0.4,1.8-0.9,2.4-1.6c0.6-0.7,0.9-1.6,0.9-2.6
				c0-0.5-0.1-1-0.3-1.4c-0.2-0.4-0.4-0.8-0.8-1.1c-0.3-0.3-0.7-0.6-1.2-0.8c-0.5-0.2-1-0.4-1.5-0.6l-7.7-2.3
				c-0.7-0.2-1.5-0.5-2.3-0.9c-0.8-0.4-1.5-0.8-2.1-1.4c-0.6-0.6-1.2-1.3-1.6-2.1c-0.4-0.9-0.6-1.9-0.6-3.1c0-1.8,0.5-3.4,1.4-4.7
				c0.9-1.3,2.2-2.2,3.8-2.9c1.6-0.7,3.4-1,5.4-1c2,0,3.8,0.4,5.4,1.1c1.6,0.7,2.9,1.7,4,3c1.1,1.3,1.8,2.9,2.2,4.7l-4.6,0.8
				c-0.2-1.1-0.6-2.1-1.3-2.9s-1.5-1.4-2.5-1.9c-1-0.4-2-0.7-3.2-0.7c-1.1,0-2.1,0.1-3,0.5c-0.9,0.4-1.7,0.9-2.2,1.5
				s-0.8,1.4-0.8,2.2c0,0.8,0.2,1.5,0.7,2s1.1,0.9,1.8,1.2s1.4,0.5,2.1,0.7l5.5,1.6c0.7,0.2,1.5,0.5,2.4,0.8
				c0.9,0.3,1.7,0.8,2.6,1.4c0.8,0.6,1.5,1.4,2,2.3s0.8,2.2,0.8,3.6c0,1.5-0.3,2.8-0.9,4c-0.6,1.1-1.4,2.1-2.5,2.9
				c-1.1,0.8-2.3,1.3-3.7,1.7C291.9,396.4,290.5,396.6,288.9,396.6z"/>
			<path class="st0" d="M314.6,396.6c-2.2,0-4.2-0.5-5.8-1.5c-1.6-1-2.9-2.4-3.8-4.2c-0.9-1.8-1.3-3.8-1.3-6.1
				c0-2.3,0.5-4.4,1.4-6.2c0.9-1.8,2.2-3.2,3.8-4.1c1.6-1,3.6-1.5,5.8-1.5c2.2,0,4.2,0.5,5.8,1.5c1.6,1,2.9,2.4,3.8,4.2
				c0.9,1.8,1.3,3.8,1.3,6.1c0,2.3-0.5,4.4-1.4,6.2c-0.9,1.8-2.2,3.2-3.8,4.2S316.8,396.6,314.6,396.6z M314.6,392.5
				c2.1,0,3.7-0.7,4.8-2.2c1.1-1.4,1.6-3.3,1.6-5.6c0-2.3-0.5-4.2-1.6-5.6c-1.1-1.4-2.7-2.1-4.8-2.1c-1.5,0-2.6,0.3-3.6,1
				c-0.9,0.7-1.6,1.6-2.1,2.7c-0.5,1.2-0.7,2.5-0.7,4c0,2.4,0.5,4.2,1.6,5.6S312.5,392.5,314.6,392.5z"/>
			<path class="st0" d="M338.7,396.5c-1.5,0-2.8-0.2-3.9-0.7c-1.1-0.5-1.9-1.2-2.6-2c-0.7-0.8-1.2-1.7-1.5-2.6
				c-0.3-1-0.6-1.9-0.7-2.8c-0.1-0.9-0.2-1.7-0.2-2.4v-12.4h4.4v11c0,0.9,0.1,1.8,0.2,2.7s0.4,1.8,0.8,2.6s1,1.4,1.7,1.9
				c0.7,0.5,1.7,0.7,2.9,0.7c0.8,0,1.5-0.1,2.2-0.4c0.7-0.3,1.3-0.7,1.8-1.2c0.5-0.6,0.9-1.3,1.2-2.2c0.3-0.9,0.4-2.1,0.4-3.4l2.7,1
				c0,2-0.4,3.8-1.1,5.4c-0.8,1.6-1.9,2.8-3.3,3.6C342.4,396.1,340.7,396.5,338.7,396.5z M346.1,395.9v-6.5h-0.5v-15.9h4.4v22.4
				H346.1z"/>
			<path class="st0" d="M355.8,395.9v-22.4h3.9v5.4l-0.5-0.7c0.3-0.7,0.6-1.4,1.1-2c0.4-0.6,1-1.1,1.5-1.5c0.6-0.4,1.2-0.7,1.9-1
				c0.7-0.2,1.4-0.4,2.1-0.4c0.7,0,1.4,0,2.1,0.1v4.1c-0.7-0.2-1.5-0.2-2.4-0.2c-0.9,0.1-1.7,0.4-2.5,0.8c-0.7,0.5-1.3,1-1.7,1.7
				c-0.4,0.7-0.7,1.4-0.9,2.2c-0.2,0.8-0.3,1.6-0.3,2.5v11.3H355.8z"/>
			<path class="st0" d="M381.1,396.6c-2.3,0-4.2-0.5-5.8-1.5s-2.8-2.4-3.7-4.2s-1.3-3.8-1.3-6.1c0-2.3,0.5-4.4,1.3-6.1
				c0.9-1.8,2.1-3.2,3.7-4.2c1.6-1,3.6-1.5,5.8-1.5c2.4,0,4.5,0.6,6.3,1.8c1.7,1.2,2.9,2.9,3.4,5l-4.3,1.2c-0.4-1.3-1.1-2.2-2.1-2.9
				c-1-0.7-2.1-1-3.3-1c-1.4,0-2.6,0.3-3.5,1c-0.9,0.7-1.6,1.6-2,2.7c-0.4,1.2-0.7,2.5-0.7,4c0,2.3,0.5,4.2,1.6,5.6s2.6,2.1,4.6,2.1
				c1.4,0,2.5-0.3,3.4-1c0.9-0.6,1.5-1.6,2-2.8l4.4,1c-0.7,2.2-1.9,3.9-3.6,5C385.5,396,383.5,396.6,381.1,396.6z"/>
			<path class="st0" d="M404.5,396.6c-2.2,0-4.2-0.5-5.9-1.5s-3-2.3-3.9-4.1c-0.9-1.7-1.4-3.8-1.4-6.1c0-2.4,0.5-4.6,1.4-6.4
				c0.9-1.8,2.2-3.2,3.8-4.2c1.6-1,3.6-1.5,5.7-1.5c2.3,0,4.2,0.5,5.8,1.6c1.6,1.1,2.8,2.6,3.6,4.5c0.8,1.9,1.1,4.3,0.9,6.9h-4.3
				v-1.6c0-2.6-0.5-4.5-1.5-5.8c-1-1.2-2.4-1.9-4.4-1.9c-2.2,0-3.8,0.7-4.9,2.1s-1.6,3.3-1.6,5.9c0,2.5,0.5,4.4,1.6,5.7s2.7,2,4.7,2
				c1.4,0,2.5-0.3,3.5-0.9c1-0.6,1.8-1.5,2.3-2.6l4.2,1.3c-0.9,2-2.2,3.6-4,4.7S406.6,396.6,404.5,396.6z M396.5,386v-3.4h16v3.4
				H396.5z"/>
			<path class="st0" d="M438.5,396.6c-2.1,0-4.1-0.4-5.8-1.1s-3.1-1.8-4.2-3.2c-1.1-1.4-1.8-3-2.2-4.9l4.5-0.7
				c0.5,1.8,1.4,3.2,2.9,4.3c1.5,1,3.1,1.5,5.1,1.5c1.2,0,2.3-0.2,3.3-0.6c1-0.4,1.8-0.9,2.4-1.6c0.6-0.7,0.9-1.6,0.9-2.6
				c0-0.5-0.1-1-0.3-1.4c-0.2-0.4-0.4-0.8-0.8-1.1c-0.3-0.3-0.7-0.6-1.2-0.8c-0.5-0.2-1-0.4-1.5-0.6l-7.7-2.3
				c-0.7-0.2-1.5-0.5-2.3-0.9c-0.8-0.4-1.5-0.8-2.1-1.4c-0.6-0.6-1.2-1.3-1.6-2.1c-0.4-0.9-0.6-1.9-0.6-3.1c0-1.8,0.5-3.4,1.4-4.7
				c0.9-1.3,2.2-2.2,3.8-2.9c1.6-0.7,3.4-1,5.4-1c2,0,3.8,0.4,5.4,1.1s2.9,1.7,4,3c1.1,1.3,1.8,2.9,2.2,4.7l-4.6,0.8
				c-0.2-1.1-0.7-2.1-1.3-2.9c-0.7-0.8-1.5-1.4-2.5-1.9c-1-0.4-2-0.7-3.2-0.7c-1.1,0-2.1,0.1-3,0.5c-0.9,0.4-1.7,0.9-2.2,1.5
				s-0.8,1.4-0.8,2.2c0,0.8,0.2,1.5,0.7,2s1.1,0.9,1.8,1.2s1.4,0.5,2.1,0.7l5.5,1.6c0.7,0.2,1.5,0.5,2.4,0.8
				c0.9,0.3,1.7,0.8,2.5,1.4c0.8,0.6,1.5,1.4,2,2.3s0.8,2.2,0.8,3.6c0,1.5-0.3,2.8-0.9,4c-0.6,1.1-1.4,2.1-2.5,2.9
				c-1.1,0.8-2.3,1.3-3.7,1.7C441.5,396.4,440.1,396.6,438.5,396.6z"/>
			<path class="st0" d="M464.4,396.6c-2.2,0-4.2-0.5-5.9-1.5s-3-2.3-3.9-4.1c-0.9-1.7-1.4-3.8-1.4-6.1c0-2.4,0.5-4.6,1.4-6.4
				s2.2-3.2,3.8-4.2c1.6-1,3.6-1.5,5.7-1.5c2.3,0,4.2,0.5,5.8,1.6c1.6,1.1,2.8,2.6,3.6,4.5s1.1,4.3,0.9,6.9h-4.3v-1.6
				c0-2.6-0.5-4.5-1.5-5.8s-2.4-1.9-4.4-1.9c-2.2,0-3.8,0.7-4.9,2.1s-1.6,3.3-1.6,5.9c0,2.5,0.5,4.4,1.6,5.7s2.7,2,4.7,2
				c1.4,0,2.5-0.3,3.5-0.9s1.8-1.5,2.3-2.6l4.2,1.3c-0.9,2-2.2,3.6-4,4.7S466.6,396.6,464.4,396.6z M456.4,386v-3.4h16v3.4H456.4z"
				/>
			<path class="st0" d="M488.9,396.6c-2.3,0-4.2-0.5-5.8-1.5c-1.6-1-2.8-2.4-3.7-4.2c-0.8-1.8-1.3-3.8-1.3-6.1
				c0-2.3,0.5-4.4,1.3-6.1c0.9-1.8,2.1-3.2,3.7-4.2c1.6-1,3.6-1.5,5.8-1.5c2.4,0,4.5,0.6,6.3,1.8c1.7,1.2,2.9,2.9,3.4,5l-4.3,1.2
				c-0.4-1.3-1.1-2.2-2.1-2.9c-1-0.7-2.1-1-3.3-1c-1.4,0-2.6,0.3-3.5,1c-0.9,0.7-1.6,1.6-2,2.7c-0.4,1.2-0.7,2.5-0.7,4
				c0,2.3,0.5,4.2,1.6,5.6c1,1.4,2.6,2.1,4.6,2.1c1.4,0,2.5-0.3,3.4-1c0.9-0.6,1.5-1.6,2-2.8l4.4,1c-0.7,2.2-1.9,3.9-3.6,5
				C493.3,396,491.3,396.6,488.9,396.6z"/>
			<path class="st0" d="M511.4,396.5c-1.5,0-2.8-0.2-3.9-0.7c-1.1-0.5-1.9-1.2-2.6-2c-0.7-0.8-1.2-1.7-1.5-2.6
				c-0.3-1-0.6-1.9-0.7-2.8c-0.1-0.9-0.2-1.7-0.2-2.4v-12.4h4.4v11c0,0.9,0.1,1.8,0.2,2.7c0.1,0.9,0.4,1.8,0.8,2.6
				c0.4,0.8,1,1.4,1.7,1.9c0.7,0.5,1.7,0.7,2.9,0.7c0.8,0,1.5-0.1,2.2-0.4c0.7-0.3,1.3-0.7,1.8-1.2c0.5-0.6,0.9-1.3,1.2-2.2
				c0.3-0.9,0.4-2.1,0.4-3.4l2.7,1c0,2-0.4,3.8-1.1,5.4c-0.8,1.6-1.9,2.8-3.3,3.6S513.4,396.5,511.4,396.5z M518.8,395.9v-6.5h-0.5
				v-15.9h4.4v22.4H518.8z"/>
			<path class="st0" d="M528.5,395.9v-22.4h3.9v5.4l-0.5-0.7c0.3-0.7,0.6-1.4,1.1-2c0.4-0.6,1-1.1,1.5-1.5c0.6-0.4,1.2-0.7,1.9-1
				c0.7-0.2,1.4-0.4,2.1-0.4c0.7,0,1.4,0,2.1,0.1v4.1c-0.7-0.2-1.5-0.2-2.4-0.2c-0.9,0.1-1.7,0.4-2.5,0.8c-0.7,0.5-1.3,1-1.7,1.7
				c-0.4,0.7-0.7,1.4-0.9,2.2s-0.3,1.6-0.3,2.5v11.3H528.5z"/>
			<path class="st0" d="M545.1,369.9v-4.2h4.3v4.2H545.1z M545.1,395.9v-22.4h4.3v22.4H545.1z"/>
			<path class="st0" d="M553.2,377v-3.5h15.3v3.5H553.2z M568.5,395.9c-1.4,0.3-2.8,0.4-4.1,0.4c-1.4,0-2.6-0.3-3.6-0.8
				s-1.9-1.2-2.4-2.3c-0.5-0.9-0.7-1.9-0.8-2.8c0-1-0.1-2-0.1-3.3v-19.8h4.4v19.6c0,0.9,0,1.7,0,2.3c0,0.7,0.2,1.2,0.4,1.7
				c0.5,0.9,1.3,1.3,2.4,1.5c1.1,0.1,2.4,0.1,3.8-0.1V395.9z"/>
			<path class="st0" d="M575.7,405.9l4.3-11.8l0.1,3.5l-9.8-24h4.5l7.3,18.6h-1.3l7-18.6h4.4l-12.4,32.3H575.7z"/>
			<path class="st0" d="M603.9,395.9v-29.9H616c0.3,0,0.6,0,1.1,0s0.8,0.1,1.2,0.1c1.7,0.3,3,0.8,4.2,1.7c1.1,0.9,1.9,2,2.5,3.3
				c0.6,1.3,0.8,2.8,0.8,4.4c0,1.6-0.3,3.1-0.8,4.4c-0.6,1.3-1.4,2.4-2.5,3.3c-1.1,0.9-2.5,1.4-4.2,1.7c-0.4,0.1-0.8,0.1-1.2,0.1
				c-0.4,0-0.8,0-1.1,0h-7.7v10.7H603.9z M608.2,381.1h7.6c0.3,0,0.6,0,0.9,0s0.7-0.1,1-0.1c0.9-0.2,1.6-0.6,2.1-1.2
				s0.9-1.2,1.2-1.9s0.4-1.5,0.4-2.2s-0.1-1.5-0.4-2.2s-0.6-1.4-1.2-1.9c-0.5-0.6-1.3-0.9-2.1-1.2c-0.3-0.1-0.6-0.1-1-0.2
				c-0.3,0-0.6,0-0.9,0h-7.6V381.1z"/>
			<path class="st0" d="M630.4,395.9v-30.5h4.3v30.5H630.4z"/>
			<path class="st0" d="M647.3,396.6c-1.7,0-3-0.3-4.2-0.9c-1.1-0.6-2-1.4-2.5-2.4c-0.6-1-0.9-2.1-0.9-3.3c0-1.1,0.2-2.1,0.6-3
				c0.4-0.9,1-1.6,1.8-2.2c0.8-0.6,1.8-1.1,2.9-1.5c1-0.3,2.1-0.5,3.4-0.8c1.3-0.2,2.6-0.4,4-0.6c1.4-0.2,2.8-0.4,4.1-0.6l-1.6,0.9
				c0-1.8-0.3-3.1-1.1-3.9c-0.8-0.8-2.1-1.3-3.9-1.3c-1.2,0-2.3,0.3-3.2,0.8c-1,0.5-1.7,1.4-2.1,2.7l-4-1.2c0.6-1.9,1.6-3.4,3.2-4.6
				c1.6-1.1,3.6-1.7,6.2-1.7c2,0,3.8,0.3,5.2,1c1.5,0.7,2.6,1.8,3.3,3.2c0.4,0.7,0.6,1.5,0.7,2.3s0.1,1.7,0.1,2.6v13.8h-3.8v-5.1
				l0.7,0.7c-0.9,1.7-2.1,3-3.5,3.8C651.2,396.1,649.4,396.6,647.3,396.6z M648.1,393c1.2,0,2.3-0.2,3.2-0.7s1.6-1,2.1-1.7
				c0.5-0.7,0.9-1.4,1.1-2.1c0.2-0.7,0.4-1.4,0.4-2.2c0-0.8,0.1-1.5,0.1-2l1.4,0.5c-1.4,0.2-2.6,0.4-3.7,0.6s-2.1,0.3-3,0.5
				c-0.9,0.2-1.7,0.3-2.4,0.6c-0.6,0.2-1.1,0.5-1.6,0.7s-0.8,0.6-1.1,1.1s-0.4,0.9-0.4,1.5c0,0.6,0.1,1.1,0.4,1.6
				c0.3,0.5,0.7,0.9,1.3,1.2C646.4,392.9,647.2,393,648.1,393z"/>
			<path class="st0" d="M662.2,377v-3.5h15.3v3.5H662.2z M677.5,395.9c-1.4,0.3-2.8,0.4-4.1,0.4c-1.4,0-2.6-0.3-3.6-0.8
				s-1.9-1.2-2.4-2.3c-0.5-0.9-0.7-1.9-0.8-2.8c0-1-0.1-2-0.1-3.3v-19.8h4.4v19.6c0,0.9,0,1.7,0,2.3c0,0.7,0.2,1.2,0.4,1.7
				c0.5,0.9,1.3,1.3,2.4,1.5c1.1,0.1,2.4,0.1,3.8-0.1V395.9z"/>
			<path class="st0" d="M680.7,377v-3.5h13.7v3.5H680.7z M684.4,395.9v-23.2c0-0.6,0-1.2,0.1-1.8c0-0.6,0.2-1.3,0.4-1.9
				s0.5-1.2,1-1.7c0.6-0.6,1.2-1.1,1.9-1.3c0.7-0.3,1.4-0.4,2-0.5c0.7,0,1.3-0.1,1.9-0.1h2.8v3.6h-2.6c-1,0-1.8,0.3-2.3,0.8
				s-0.8,1.2-0.8,2.1v24H684.4z"/>
			<path class="st0" d="M706.7,396.6c-2.2,0-4.2-0.5-5.8-1.5c-1.6-1-2.9-2.4-3.8-4.2c-0.9-1.8-1.3-3.8-1.3-6.1
				c0-2.3,0.5-4.4,1.4-6.2c0.9-1.8,2.2-3.2,3.8-4.1c1.6-1,3.6-1.5,5.8-1.5c2.2,0,4.2,0.5,5.8,1.5c1.6,1,2.9,2.4,3.8,4.2
				c0.9,1.8,1.3,3.8,1.3,6.1c0,2.3-0.5,4.4-1.4,6.2c-0.9,1.8-2.2,3.2-3.8,4.2C710.8,396.1,708.9,396.6,706.7,396.6z M706.7,392.5
				c2.1,0,3.7-0.7,4.8-2.2s1.6-3.3,1.6-5.6c0-2.3-0.5-4.2-1.6-5.6c-1.1-1.4-2.7-2.1-4.8-2.1c-1.5,0-2.6,0.3-3.6,1
				c-0.9,0.7-1.6,1.6-2.1,2.7c-0.5,1.2-0.7,2.5-0.7,4c0,2.4,0.5,4.2,1.6,5.6C703,391.8,704.6,392.5,706.7,392.5z"/>
			<path class="st0" d="M722.3,395.9v-22.4h3.9v5.4l-0.5-0.7c0.3-0.7,0.6-1.4,1.1-2c0.4-0.6,1-1.1,1.5-1.5c0.6-0.4,1.2-0.7,1.9-1
				c0.7-0.2,1.4-0.4,2.1-0.4c0.7,0,1.4,0,2.1,0.1v4.1c-0.7-0.2-1.5-0.2-2.4-0.2c-0.9,0.1-1.7,0.4-2.5,0.8c-0.7,0.5-1.3,1-1.7,1.7
				c-0.4,0.7-0.7,1.4-0.9,2.2s-0.3,1.6-0.3,2.5v11.3H722.3z"/>
			<path class="st0" d="M738.4,395.9v-22.4h3.9v6.5h0.5v15.9H738.4z M751.8,395.9l0-13.9c0-1.6-0.4-2.9-1.2-3.8
				c-0.8-0.9-1.9-1.4-3.3-1.4c-1.4,0-2.5,0.5-3.3,1.4c-0.8,0.9-1.3,2.2-1.3,3.7l-2.1-1.3c0-1.5,0.4-2.8,1.1-3.9
				c0.7-1.1,1.7-2.1,2.9-2.7s2.6-1,4.1-1c1.6,0,2.9,0.3,4.1,1c1.1,0.7,2,1.6,2.6,2.8c0.6,1.2,0.9,2.6,0.9,4.2l0,14.9H751.8z
				 M765.2,395.9l0-14c0-1.6-0.4-2.9-1.2-3.8c-0.8-0.9-1.9-1.4-3.3-1.4c-0.8,0-1.6,0.2-2.3,0.6c-0.7,0.4-1.2,0.9-1.7,1.7
				c-0.4,0.8-0.6,1.7-0.6,2.8l-2.1-1.1c0-1.6,0.3-3,1-4.1s1.6-2.1,2.9-2.8c1.2-0.7,2.6-1,4-1c2.4,0,4.3,0.7,5.6,2.2
				c1.3,1.5,2,3.4,2,5.8l0,15H765.2z"/>
		</g>
	</g>
</g>
</svg>
