<?xml version="1.0" encoding="utf-8"?>
<!-- Generator: Adobe Illustrator 25.2.3, SVG Export Plug-In . SVG Version: 6.00 Build 0)  -->
<svg version="1.1" xmlns="http://www.w3.org/2000/svg" x="0px" y="0px"
	 width="1024px" height="200px" viewBox="0 0 1024 200" fill="none">
<g>
	<polygon points="204.11 142.81 174.37 46.12 150.88 46.12 121.13 142.81 91.65 46.06 64.64 46.06 107.69 187.04 129.61 187.04 162.63 85 195.5 187.04 217.42 187.04 260.48 46.12 233.6 46.12 204.11 142.81" fill="black"/>
	<polygon points="451.67 70.52 524.33 70.52 444.36 182.73 444.36 187.04 563.74 187.04 563.74 162.64 487.81 162.64 567.65 50.56 567.65 46.12 451.67 46.12 451.67 70.52" fill="black"/>
	<path d="M390,61c-12.09-12.61-28.57-19.24-48-19.24-41,0-72,32.22-72,75s30.95,75,72,75c19.35,0,35.84-6.6,48-19.12v16.16h27.58V44.7H390Zm-45.15,104.7c-27.1,0-46.77-20.6-46.77-49s19.67-48.84,46.77-48.84S391.5,88.4,391.5,116.7,371.89,165.68,344.88,165.68Z" fill="black"/>
	<path d="M214.7,45.1c0,8.5-4.7,13.4-12.9,13.4c-8.2,0-12.9-4.9-12.9-13.4V17.7h-9.3v28.2c0,15.8,12,21.5,22.3,21.5
		c10.2,0,22.2-5.6,22.2-21.5V17.7h-9.3V45.1z" fill="black"/>
	<path d="M696.14,125.88c0,25.29-13.92,39.8-38.18,39.8s-38.32-14.51-38.32-39.8V44.7H592v83.39c0,46.91,35.51,63.56,65.92,63.56s65.77-16.65,65.77-63.56V44.7H696.14Z" fill="black"/>
	<circle fill="#3585F9" cx="937.12" cy="167.6" r="22.24"/>
</g>
</svg>
