<?xml version="1.0" encoding="utf-8"?>
<!-- Generator: Adobe Illustrator 25.2.3, SVG Export Plug-In . SVG Version: 6.00 Build 0)  -->
<svg version="1.1" id="Capa_1" xmlns="http://www.w3.org/2000/svg" xmlns:xlink="http://www.w3.org/1999/xlink" x="0px" y="0px"
	 width="148px" height="28px" viewBox="0 0 148 28" style="enable-background:new 0 0 148 28;" xml:space="preserve">
<style type="text/css">
	.st0{fill:#FFFFFF;}
	.st1{fill:#007AFF;}
</style>
<g>
	<polygon class="st0" points="41,18.6 37.8,8.2 35.3,8.2 32.1,18.6 29,8.2 26.1,8.2 30.7,23.3 33,23.3 36.6,12.4 40.1,23.3 
		42.4,23.3 47,8.2 44.2,8.2 	"/>
	<polygon class="st0" points="67.5,10.8 75.3,10.8 66.8,22.9 66.8,23.3 79.5,23.3 79.5,20.7 71.4,20.7 80,8.7 80,8.2 67.5,8.2 	"/>
	<path class="st0" d="M60.9,9.8c-1.3-1.4-3.1-2.1-5.1-2.1c-4.4,0-7.7,3.5-7.7,8c0,4.6,3.3,8,7.7,8c2.1,0,3.8-0.7,5.1-2v1.7h3V8.1h-3
		V9.8z M56.1,21c-2.9,0-5-2.2-5-5.2s2.1-5.2,5-5.2s5,2.2,5,5.2S59,21,56.1,21z"/>
	<path class="st0" d="M93.7,16.8c0,2.7-1.5,4.3-4.1,4.3s-4.1-1.6-4.1-4.3V8.1h-3V17c0,5,3.8,6.8,7.1,6.8c3.3,0,7-1.8,7-6.8V8.1h-3
		L93.7,16.8L93.7,16.8z"/>
	<path class="st0" d="M113.8,13.3c-0.1-0.6-0.2-1.2-0.5-1.9s-0.6-1.2-1-1.8c-0.4-0.5-1-1-1.7-1.3S109,7.8,108,7.8
		c-1.4,0-2.5,0.3-3.5,0.9c-0.6,0.4-1.1,0.8-1.5,1.3V4.2h-2.6v19.1h3v-7.9c0-0.9,0.1-1.7,0.3-2.3c0.2-0.6,0.5-1.1,0.8-1.5
		s0.8-0.7,1.2-0.8c0.5-0.2,1-0.3,1.5-0.3c0.8,0,1.5,0.2,2,0.5s0.9,0.8,1.2,1.3c0.3,0.5,0.5,1.1,0.6,1.7c0.1,0.6,0.1,1.2,0.1,1.8v7.4
		h3v-8.4C113.9,14.5,113.9,13.9,113.8,13.3z"/>
	<circle class="st1" cx="119.6" cy="21.2" r="2.4"/>
</g>
</svg>
